<?xml version="1.0" standalone="no"?>
<!DOCTYPE svg PUBLIC "-//W3C//DTD SVG 20010904//EN"
 "http://www.w3.org/TR/2001/REC-SVG-20010904/DTD/svg10.dtd">
<svg version="1.0" xmlns="http://www.w3.org/2000/svg"
 width="499.000000pt" height="499.000000pt" viewBox="0 0 499.000000 499.000000"
 preserveAspectRatio="xMidYMid meet">
<metadata>
Created by potrace 1.11, written by Peter Selinger 2001-2013
</metadata>
<g transform="translate(0.000000,499.000000) scale(0.100000,-0.100000)"
fill="#000000" stroke="none">
<path d="M2187 4384 c-2 -3 -35 -5 -73 -6 -59 0 -73 -4 -96 -26 -23 -21 -30
-23 -43 -12 -15 12 -31 9 -100 -21 -52 -22 -132 -49 -147 -49 -9 0 -27 -11
-40 -24 -13 -13 -43 -35 -68 -49 -25 -13 -54 -38 -65 -54 -11 -17 -32 -35 -46
-42 -14 -6 -32 -22 -39 -36 -7 -13 -17 -22 -21 -19 -5 2 -20 -15 -35 -38 -15
-24 -33 -46 -40 -51 -21 -12 -101 -139 -133 -211 -63 -139 -104 -327 -105
-476 -1 -149 11 -296 28 -328 8 -15 17 -44 20 -65 3 -21 11 -47 16 -57 5 -10
11 -42 12 -70 1 -28 8 -56 15 -61 6 -6 17 -26 24 -46 6 -19 28 -65 50 -102 21
-36 48 -93 60 -126 24 -63 64 -135 83 -147 6 -4 30 -8 53 -8 38 0 42 2 48 30
16 73 -29 179 -90 213 -24 14 -47 39 -62 66 -13 25 -30 53 -39 62 -9 10 -14
24 -11 31 2 7 -8 36 -23 64 -25 47 -28 61 -26 139 1 57 -3 96 -11 113 -8 15
-11 41 -8 61 3 20 8 54 11 76 3 22 17 82 30 134 13 51 24 108 24 126 0 19 8
39 20 50 11 10 20 26 20 35 0 10 7 23 14 30 8 6 21 33 29 59 14 50 165 281
222 341 18 19 36 45 39 57 4 12 16 25 26 28 11 3 29 20 41 37 19 26 90 84 201
166 17 12 38 31 45 42 8 11 23 20 34 20 10 0 27 4 37 9 34 17 118 41 144 41
44 0 95 -37 118 -85 28 -58 27 -138 -3 -260 -3 -11 -6 -28 -6 -38 -1 -9 -12
-27 -26 -39 -13 -11 -24 -31 -23 -42 1 -12 -2 -35 -6 -53 -4 -19 -3 -34 3 -38
16 -9 13 -25 -2 -19 -24 9 -40 -23 -35 -71 3 -25 2 -42 -3 -39 -5 3 -18 0 -29
-6 -17 -9 -20 -19 -18 -48 2 -29 -2 -41 -19 -55 -27 -22 -29 -34 -6 -59 9 -10
12 -18 6 -18 -18 0 -64 -77 -74 -122 -6 -24 -22 -67 -36 -97 -14 -30 -25 -70
-26 -90 0 -22 -8 -41 -18 -49 -10 -6 -25 -35 -35 -64 -9 -28 -25 -66 -36 -83
-10 -18 -17 -43 -15 -56 3 -15 -8 -39 -30 -67 -18 -24 -33 -49 -34 -55 -3 -47
-20 -91 -51 -130 -13 -16 -22 -42 -23 -65 0 -22 -10 -51 -23 -69 -12 -17 -22
-34 -22 -37 0 -17 -71 -154 -87 -167 -10 -9 -52 -37 -93 -62 -41 -25 -91 -61
-110 -79 -19 -18 -53 -46 -75 -62 -51 -37 -76 -60 -145 -128 -31 -31 -65 -58
-76 -62 -11 -3 -36 -33 -55 -66 -18 -33 -39 -60 -45 -60 -21 0 -64 -53 -74
-91 -6 -21 -19 -44 -28 -51 -28 -20 -59 -69 -81 -127 -11 -29 -26 -61 -34 -70
-8 -9 -25 -41 -38 -71 -12 -30 -32 -65 -43 -78 -17 -19 -21 -38 -23 -100 -1
-46 -8 -93 -18 -116 -10 -23 -18 -74 -20 -125 -3 -112 27 -200 90 -266 59 -60
102 -68 153 -28 20 16 58 42 83 57 28 16 52 39 59 57 7 16 26 37 41 46 16 10
32 26 35 37 4 11 17 28 30 38 12 10 25 27 29 37 3 10 14 21 24 24 11 2 24 21
31 42 13 40 60 114 85 135 8 7 15 21 15 31 0 10 19 38 43 61 24 24 65 84 92
133 26 50 66 124 88 165 22 41 54 100 73 130 18 30 54 100 80 154 27 55 59
110 71 122 13 13 20 30 17 38 -3 8 11 38 30 68 22 32 36 65 36 84 0 18 8 38
19 48 11 10 17 25 14 33 -3 8 4 27 16 43 12 16 22 41 23 55 3 30 100 110 123
101 8 -3 29 9 46 27 18 18 34 30 36 28 10 -9 156 77 170 100 11 18 30 30 64
38 35 9 55 22 74 47 17 22 35 34 49 34 32 0 95 58 102 94 3 16 9 37 14 47 16
28 12 67 -7 77 -24 12 -47 8 -80 -16 -15 -11 -46 -29 -69 -40 -22 -11 -61 -41
-86 -65 -25 -25 -60 -53 -79 -62 -19 -10 -53 -33 -76 -51 -23 -19 -46 -34 -51
-34 -5 0 -28 -18 -52 -41 -23 -22 -46 -37 -51 -32 -4 4 5 29 21 55 17 27 30
54 30 61 0 7 11 28 23 47 25 36 35 67 44 133 3 24 17 49 39 71 26 26 34 42 34
69 0 25 6 40 20 50 23 16 31 42 34 103 1 25 10 49 23 63 26 28 56 131 57 198
1 39 5 53 17 56 25 7 101 227 113 327 3 25 8 68 11 95 3 28 8 68 12 90 9 66 4
209 -10 252 -16 51 -154 176 -213 192 -38 10 -158 13 -167 5z m-127 -1335 c0
-6 -4 -7 -10 -4 -5 3 -10 11 -10 16 0 6 5 7 10 4 6 -3 10 -11 10 -16z m-446
-971 c-4 -7 -31 -47 -59 -88 -54 -78 -205 -365 -205 -390 0 -8 -14 -35 -30
-59 -17 -24 -30 -50 -30 -56 0 -7 -7 -18 -14 -25 -8 -6 -20 -28 -27 -48 -6
-20 -31 -64 -55 -99 -24 -35 -49 -82 -55 -104 -8 -25 -21 -44 -34 -49 -21 -8
-33 -27 -58 -90 -14 -35 -104 -146 -121 -149 -15 -3 -43 103 -38 140 2 19 11
42 19 51 8 9 19 36 24 59 6 23 25 76 44 117 19 41 35 83 35 93 0 19 34 75 64
104 9 9 16 25 16 36 0 11 10 24 23 30 12 5 30 27 39 47 10 20 30 53 45 73 46
60 130 161 173 210 23 25 50 60 61 78 10 17 25 31 33 31 7 0 21 11 30 25 9 14
38 36 64 49 53 28 66 31 56 14z"/>
<path d="M4199 4360 c-8 -5 -26 -11 -40 -14 -72 -13 -125 -28 -148 -41 -14 -8
-53 -26 -86 -40 -70 -31 -95 -51 -95 -79 0 -15 -3 -17 -12 -8 -13 13 -58 17
-58 4 0 -4 -39 -35 -88 -69 -48 -34 -102 -78 -121 -97 -32 -33 -33 -37 -19
-53 11 -13 13 -25 7 -40 -10 -28 -19 -30 -12 -4 3 14 -2 20 -22 23 -27 6 -42
-3 -111 -68 -23 -22 -60 -54 -83 -72 -23 -18 -41 -37 -41 -41 0 -5 -16 -25
-35 -45 -27 -29 -34 -43 -29 -61 9 -35 -4 -65 -27 -65 -25 0 -37 -12 -73 -73
-21 -37 -25 -51 -16 -62 9 -10 6 -15 -12 -20 -64 -20 -76 -70 -28 -115 17 -16
27 -31 22 -34 -5 -3 -16 4 -25 14 -16 19 -19 19 -50 4 -34 -16 -77 -69 -77
-95 0 -9 -12 -26 -26 -40 -38 -35 -44 -52 -34 -88 7 -24 6 -31 -6 -31 -8 0
-14 -4 -14 -8 0 -5 -11 -22 -25 -38 -25 -29 -56 -85 -59 -109 -1 -7 -7 -19
-13 -26 -13 -16 -83 -198 -83 -215 0 -6 -18 -65 -41 -130 -35 -105 -40 -130
-41 -214 -1 -105 1 -116 31 -215 24 -76 57 -152 72 -161 5 -3 16 -20 23 -39 8
-18 23 -36 35 -40 11 -3 23 -14 26 -24 9 -28 37 -49 74 -56 18 -3 47 -13 65
-22 19 -10 53 -16 86 -15 30 0 77 1 103 1 40 0 50 4 54 20 4 14 12 19 27 17
19 -3 59 13 95 39 7 5 23 10 35 11 44 2 127 37 142 59 8 13 26 26 40 29 14 4
29 17 35 29 7 15 25 27 53 35 50 13 101 70 91 101 -7 23 20 49 29 26 3 -8 12
-15 19 -15 15 0 67 61 67 78 0 14 35 42 52 42 8 0 23 9 33 20 10 11 25 20 34
20 10 0 34 23 55 50 22 28 53 57 71 64 20 9 35 23 38 38 4 13 17 30 30 37 14
7 34 31 47 53 12 21 33 43 46 48 13 5 35 27 49 50 14 22 31 40 39 40 8 0 21
16 31 36 9 19 34 51 56 71 21 19 39 42 39 51 0 8 11 25 24 37 21 19 23 28 17
58 -16 68 -28 71 -124 28 -50 -23 -66 -35 -69 -53 -2 -13 -15 -28 -31 -36 -16
-8 -33 -27 -39 -43 -6 -18 -17 -29 -28 -29 -24 0 -36 -16 -39 -55 0 -9 -11
-15 -24 -15 -14 0 -55 -31 -116 -90 -52 -49 -98 -90 -103 -90 -4 0 -8 -7 -8
-15 0 -10 -10 -15 -29 -15 -22 0 -34 -9 -55 -42 -15 -24 -59 -70 -97 -103 -39
-33 -75 -68 -80 -77 -5 -10 -16 -18 -24 -18 -18 0 -136 -86 -192 -138 -23 -22
-57 -43 -75 -47 -18 -4 -47 -22 -64 -41 -22 -24 -41 -34 -61 -34 -17 0 -44 -7
-61 -15 -58 -29 -182 -40 -182 -17 0 4 -18 34 -39 67 -31 47 -37 62 -26 68 10
5 12 14 5 31 -5 13 -7 26 -5 28 10 10 16 131 7 137 -6 4 3 35 25 81 26 57 33
84 30 113 -3 20 -2 37 2 37 11 0 31 47 31 74 0 12 11 37 25 56 14 19 25 41 25
50 0 8 9 31 20 50 42 75 111 223 106 228 -5 4 21 59 34 72 3 3 12 19 20 35 8
17 23 43 33 58 12 18 17 36 13 52 -5 20 -1 27 21 39 36 18 66 51 68 74 0 9 8
28 18 42 9 14 26 48 38 75 12 28 33 62 46 77 14 15 26 38 26 52 0 14 5 26 12
26 19 0 115 109 115 130 0 11 12 26 28 34 32 17 95 89 103 119 3 12 11 21 17
20 6 -2 23 12 39 31 15 18 38 37 51 40 12 4 22 11 22 15 0 15 70 80 124 116
30 20 57 43 60 51 4 12 13 14 32 10 17 -5 49 4 104 29 86 39 120 39 138 1 22
-50 -8 -222 -48 -274 -10 -13 -17 -32 -15 -42 2 -12 -6 -27 -21 -39 -13 -10
-24 -28 -24 -38 0 -31 -71 -133 -138 -199 -34 -33 -62 -68 -62 -76 0 -27 -11
-48 -26 -48 -7 0 -44 -23 -81 -51 -140 -106 -169 -164 -120 -236 25 -38 71
-63 114 -63 53 0 151 98 140 140 -3 11 4 22 18 30 12 7 32 28 43 49 12 20 31
47 44 61 13 14 34 48 48 74 13 27 29 54 35 60 55 56 132 181 140 227 3 17 16
57 29 88 13 31 27 72 31 91 4 19 14 44 22 56 15 24 26 186 16 243 -9 53 -135
171 -152 143 -5 -9 -12 -8 -27 3 -22 16 -52 19 -75 5z"/>
</g>
</svg>
